<svg xmlns="http://www.w3.org/2000/svg" version="1.1" xmlns:xlink="http://www.w3.org/1999/xlink" width="1000" height="1000"><g clip-path="url(#SvgjsClipPath1306)"><rect width="1000" height="1000" fill="#252525"></rect><g transform="matrix(0.7,0,0,0.7,150,150)"><svg xmlns="http://www.w3.org/2000/svg" version="1.1" xmlns:xlink="http://www.w3.org/1999/xlink" width="1000" height="1000"><svg id="Ebene_1" xmlns="http://www.w3.org/2000/svg" xmlns:xlink="http://www.w3.org/1999/xlink" baseProfile="tiny" version="1.2" viewBox="0 0 1000 1000">
  <!-- Generator: Adobe Illustrator 30.2.1, SVG Export Plug-In . SVG Version: 2.1.1 Build 1)  -->
  <defs>
    <linearGradient id="Unbenannter_Verlauf_33" data-name="Unbenannter Verlauf 33" x1="52.7" y1="497.1" x2="928.4" y2="497.1" gradientUnits="userSpaceOnUse">
      <stop offset="0" stop-color="#fcc10a"></stop>
      <stop offset=".2" stop-color="#fcc20c"></stop>
      <stop offset=".4" stop-color="#fcc713"></stop>
      <stop offset=".4" stop-color="#fdd01f"></stop>
      <stop offset=".5" stop-color="#feda2c"></stop>
      <stop offset=".6" stop-color="#fdd429"></stop>
      <stop offset=".8" stop-color="#fac321"></stop>
      <stop offset=".9" stop-color="#f6a815"></stop>
      <stop offset="1" stop-color="#f59e11"></stop>
    </linearGradient>
  <clipPath id="SvgjsClipPath1306"><rect width="1000" height="1000" x="0" y="0" rx="350" ry="350"></rect></clipPath></defs>
  <g id="B7hrbS">
    <image id="B7hrbS1" data-name="B7hrbS" width="626" height="626" transform="translate(-909.1 -12.1)" xlink:href="Logo-1.png"></image>
  </g>
  <g id="t5O1N3">
    <image id="t5O1N31" data-name="t5O1N3" width="800" height="600" transform="translate(-1040.3 529.4)" xlink:href="Logo-2.png"></image>
  </g>
  <path d="M1178.6,865V215h1000v649.6h-900.7s-45.2.2-45.2.2c-18.5.1-36.3-.6-54.1.2ZM1274.1,310.2c5.4-.7,8.9-4.3,9.5-9.2v-35.1c0-5.5-4.3-10.1-10-10.1h-34.1c-5.5,0-10.1,4.5-10.1,10v34.2c0,5.5,4.7,10,10.2,10h34.5ZM1339.1,310.2c5.5-.8,9.4-4.8,9.4-10.1v-34.1c0-6-5-10.1-10.8-10.1h-33.2c-5.8,0-10,4.4-10.4,10.1v34.1c.4,5.7,4.6,10.1,10.4,10.1h34.5ZM1414.1,310.2c5.5-.8,9.4-4.8,9.4-10.1v-34c0-6.1-5.2-10.2-10.9-10.2h-33.1c-5.6,0-10.2,4.4-10.2,10.1v34.1c0,5.7,4.7,10.1,10.3,10.1h34.6ZM1826.1,570.9c-31.9-23.6-39.1-68.5-14.3-99.9s7.8-8.8,11.8-11.5l13.8-9.3h-4.4c-.6,0-2.2-1-2.8-.6l-2.6,1.6c.4-1.5.9-3.6.8-3.5h3.5c3.1-.2-7.2-8.3-15.2-1.7s-11.1,9.3-16.3,15.1c-21,23.4-26.4,58-12.7,86.5,8.4,17.5,21.2,31.4,38.3,40.9-1.1-4.8,4-11.3,5.9-11.1l3.5.4-4.4-3.2-5-3.7ZM1409.7,444.3c-1.2.2-1.8,4-.9,4.8s3.4.9,4.6.4,1.3-3.4.6-4.4-2.8-1.1-4.4-.8ZM1252.4,463.8c-1.3,5.7-5.8,6.9-10,6s-6.5-4.4-6.4-9,2.1-7.2,4.7-8.1c9.3-3.3,8.6,5.3,16,2.1-2.4-7.5-10.4-8.8-16.9-7.2s-9.8,7.9-9.3,14.8,4.9,11.6,12.2,12.4,8.8-1.1,11.4-3.7,4.3-7.2,3.4-11.7h-13.6c-.9,0-.5,3.8.4,3.9l8,.5ZM1384.2,468.9c-.5-2.6-.4-9.1,0-11l4.4-1.4c.8-.2.1-3-.7-3.2s-2.9-.5-3.7-.9-.3-4-1.2-4.6-4-.4-4.3.6-.7,2.8-1.1,3.5l-2.1,3.5c-.4.6,1.7,2,2.4,2.6l.9,12.7c.3,3.7,7.1,4.9,9.3,3.5s.9-3.5,0-3.7-3.8-.8-3.9-1.6ZM1268.5,469.9c-1.1-.7-2.1-2.9-2.1-4.3l15.4-.3c1.5-7.6-3.7-12.8-10.7-12.7s-11.3,5.1-10.6,12.7,4.2,9,8.9,9.6,9.8-.9,11.8-6.5c-6.7-2.6-7.4,4.9-12.8,1.6ZM1291.6,453.6c-6.4,2.6-7.7,10.4-5,15.8s9.2,6.9,14.5,4.7,7.9-9.2,5.8-14.8-8.9-8.3-15.2-5.7ZM1332.6,462.9c0-3,1.6-5.5,4.6-5.7s5.2,2,5.3,4.6l.2,12.7,5.3-.3c-.4-7.7,2.5-21.1-7.8-21.7s-6.3,1.5-8.9,3.3c-3.7-3.9-8.8-3.9-13-1.8l-6.5-1.2v21.8c0,0,5.4-.4,5.4-.4v-12c0-3.2,2.9-5.4,6-5s4.1,2.8,4.1,5.6v11.5c0,0,5.3.3,5.3.3v-11.7ZM1364.9,469.8c-3.2,2.1-7-.2-7.4-4.2l15.7-.3c1.2-7.6-3.6-12.6-10-12.7s-11.1,4-11.3,10.7,2.7,10.1,7.8,11.3,10.4,0,13-6.2c-2.2-.9-5.3-.3-7.8,1.4ZM1398.3,462.1c0-4.5,6-2.2,6.8-6.4s-1.5-3.2-2.4-2.8l-3.3,1.6c-1.9-1-5.2-2.1-6.6-1v21s5.3-.3,5.3-.3v-12.2ZM1413.9,473.8v-19.5c0-1.6-5.2-1.7-5.2-.3v20c.5,1,5.2,1,5.2-.2ZM1426.8,457.7c5.1-3,6.4,5.1,12.3,2-1.2-5.9-6.6-7.6-11.9-6.9s-7.9,4.2-8.5,9.4,2.3,11.1,7.8,12.5,11.3-.6,12.8-6.8c-4.7-3.5-9,6.4-13.7.9s-1.8-9.3,1.3-11.1ZM1267.8,494.6c-1.1,1.2-1,4.2.1,4.7s3.7.7,4.5-.1,1.2-3.3.5-4.3-4.3-1.2-5.1-.3ZM1304.9,494.6c-1.1,1.2-1.1,4.3.2,4.8s3.7.7,4.5-.2,1.1-3.4.4-4.3-4.2-1.1-5-.3ZM1395.8,494.3c-1.2.4-1.7,4-.8,4.8s3.5,1,4.7.4,1.3-3.4.6-4.5-3.1-1.2-4.5-.7ZM1389,524.2v-28.4c-1.4-.1-4.2,0-5.5,0v28.6c0,0,5.5-.3,5.5-.3ZM1831.4,506.9l12.4-7.1-1.9-2.9c-1.2,1.9-1.3,1.8-1.3-1.1l-6.3,3.2,3.2,2.7c-2.4-.1-3.5-.2-4.3-.1s0,1.9-.5,2.3l-2.3,1.7c-.3.2.7,1.4.8,1.4ZM1256.6,524.5l5-.2v-27.2s-6.1.3-6.1.3l-8.7,19.5-8.8-19.5c-1.7-.4-5-.3-6.3,0v26.4c1.4.5,4.4.5,5.3.1l.4-15.8c3.8,5.3,4.6,12.8,8,16.3.6.6,3.3-.2,3.7-1.2l6.5-15,.9,16ZM1433.1,519.2l.2-11.6,3.9-.5c.7,0,.9-2.1,1.1-3.4l-5.1-1.6c-.2-2-.1-4.1-1-4.6s-3.6-.5-4,.5-.5,2.9-.9,3.5l-2.3,3.1c-.5.7,1.4,2.5,2.4,3.2l.6,12.1c.2,4.3,7.4,6,9.9,3.2s-.8-3.2-1.6-3.4l-3.2-.6ZM1283.7,512.5c0-3.2,2-5.2,4.5-5.4s5.1,1.4,5.1,3.9l.4,12.9c.8.8,4.4.8,5.2.2-.4-8,2.6-20.4-7.3-21.5s-5.3,1.3-7.2,1.4c-4.8.4-7.1-9.4-6,19.9.7,1,5,1,5-.2l.3-11.2ZM1336,523.2v-11.2c0-2.7,2.9-4.9,5.1-4.8s4.8,2.5,4.8,5.7v11.1c1.2.5,4.1.5,5.4,0l-.2-14.5c0-3.7-4-6.5-7.4-7s-6.3,1.6-9,3.5c-3.8-4-9.2-4.4-13.5-1.6-.8-1.2-5.7-2.1-5.8-.7l-.2,20.2c.9.7,4.7.8,5.2-.2l.2-10.7c0-3.7,2.1-6,5.4-5.8s4.3,2.5,4.4,5.8l.3,10.8c.1,1.3,5.1.9,5.1-.7ZM1378,522.8l-.3-19.6c-2-.4-4.8.5-6.2,1.3-3.3-1.8-7.6-2.9-11-.9s-5.4,6.1-5.2,10.4,2.2,8.2,5.9,10,7.7.5,10.6-1.4l3.2,2.3c.6.4,2.9-1.4,2.9-2.1ZM1416.9,524.6c3.2-.6,5.7-3.4,5.7-6.2.1-6.4-8.8-5.6-12.6-8.9,3.1-7.7,7.9,3.2,12.2-.8-1.4-5.7-7.3-7.4-12.6-5.6s-4.9,3.7-4.7,6.3c.4,6.2,8.6,5.1,12.7,8.3-3.9,8-8.1-3-13.1.8,1.6,5.6,6.8,7,12.3,6ZM1272.9,523.8v-19.8c-.1-1.5-5.4-1.5-5.4-.1v20.4c1.5.2,4,.1,5.4-.5ZM1310,524.2l-.2-20.3c0-1.4-5.3-1.4-5.3,0v20.5c-.1,0,5.5-.2,5.5-.2ZM1400.2,523.1v-19.1c-.2-1.3-5.4-1.4-5.4,0v20.1c1.4,1,5.4.8,5.4-.9ZM1362.7,552.4c8.7-5.7,10.6,6.4,17.3,1.8-3.8-8.8-15.1-10.4-21.7-4.8s-6.5,16.8.4,22c7,5.2,17.4,3.7,21.2-5.2-6.2-4.2-9.5,7.6-17.4,1.8s-4.9-12.3.2-15.6ZM1246.1,569.9l-8.8-.4-.4-21.7c0-1.4-5.2-1.4-5.2,0v26.2s14.6,0,14.6,0l-.2-4.2ZM1280.4,569.1l.3-12.2c2.7-.3,4.6-.3,4.7-1.3s0-3.1-.8-3.3c-1.3-.3-3.7-.1-3.8-1l-.5-3.4c-.1-1-3.7-1.9-4.1-.9l-1.7,4-2.1,3.5c-.5.8,1.5,2.3,2.5,3.1l.2,9.4c0,4.2,2,6.9,6.6,7s3.6-.2,3.7-1.1-.1-3.2-1-3.3l-4.1-.6ZM1295.9,568.9l.2-12c2.1-.4,4.4-.4,4.7-1.3s-.3-3.1-1.1-3.2c-1.2-.2-3.6-.2-3.7-1l-.3-3.5c0-1.1-3.8-1.8-4.3-.8s-1.1,3-1.7,4l-2.1,3.4c-.5.8,1.8,2.2,2.7,3l.4,11.5c.2,4.8,6.7,5.7,9.4,4.8s1.1-3.9.3-4.1l-4.4-.9ZM1257.6,569.7c-1.3-.3-2.9-2.8-3.2-4.7l15.6-.3c1.4-6.9-3-12.1-9-12.8s-11.4,2.7-12.2,9.1,2.1,11.7,7.6,12.9c5.2,1.2,10.6,0,13.2-6.3-7.6-2.4-5.8,3.5-12.1,2.1ZM1312,569.5c-1.2-.6-2.3-2.6-2.9-4.5l15.6-.2c1.8-6.8-3-12.5-9.5-13-6.3-.5-11.8,4.1-11.7,11.2s3.7,10.5,8.7,11.1,10-.8,12.3-6.6c-7-2.7-7.2,4.6-12.4,2ZM1341.8,555.7c.2-.8-.5-4-1.2-3.7l-5.1,2.2-2.5-2.2c-.6-.5-3.2.5-3.5,1.2v20.5c1.6,0,4.3,0,5.3-.3v-11.5c.2-4.9,6.2-3.2,7-6.3ZM1833,634.4c3.1,1.1,1.6-1.1.1-1.7l-8.7-3.6c-24.5-10.2-43.5-27-59.8-48.4,10,27.3,31.7,46.9,56.3,59.4,1.2.6,3.4,2.5,4.3,1.9s2.1-1.5,3.1-2.3l1.9-1.4c.3-.3-.5-.8-1.4-1.7l4.3-2.1ZM1246.1,622.2l-8.8-.5v-22.4c-1.5-.2-4.5,0-5.5.4v26.6s14.6.2,14.6.2l-.2-4.2ZM1257,604.6c-6.8,1.7-9.5,8.5-7.8,14.5,1.7,6.1,8,8.7,13.3,7.3s9.5-7.7,8.2-13.9c-1.2-5.9-7.4-9.6-13.7-8ZM1286.2,637c6.1,0,10.4-4.2,10.4-10v-21.6c-1.5-1.4-5.2-.3-6.4,1-3.4-2-7.9-3.2-11.5-.7s-5,6.1-4.8,10.3,2.4,8.1,5.8,9.8,7.1.8,11.2-1.5c.5,2,0,5.3-1.1,6.6-5,5.3-9.8-4.3-14.8-1.2,1.3,5.6,5.8,7.3,11.3,7.3ZM1308.7,604.6c-7,1.9-9.1,8.5-7.5,14.5s7.7,8.7,13.4,7.3,9.4-7.6,8.1-13.8-7.3-9.8-13.9-8ZM1284.3,771.7l-1.5-11.6c-4.4,6.1,3.2,25.4,1.5,11.6ZM1279.1,795.7c-.6-5.6-.2-7.9-1.6-12.7l-1.5,13.1c1.9-.2,4-.4,3.1-.3ZM1318.2,795.2l-6.8-.6c.6-4.6,1.4-8.6-1.4-11.1.2,4.9,1.9,8.4-1.2,12.4,2.8.2,5.9.1,9.4-.7ZM1259.1,815.2l3.5,3.2c-3.3-4.6-3.9-7.3-5-12.7l-.8,12.3c.5.2,1.7.5,1.8,0l.5-2.9Z" fill="#fff"></path>
  <path d="M2701.3,1384.5v425.7h-1000v-426l794.6.3,3.9-9.6c2.3,3.5,3.4,5.5,5.1,9.6h104.9s23.8-76.3,23.8-76.3c4.4,10.5,6.7,19.2,8.8,29.1l-8.9-23.7-22.2,70.9h90ZM2487.4,1616.3c-19.5,16.4-46.3,14.2-64.6,1-21.4-15.5-25.9-46.7-7.9-66.6,14-15.5,34.1-20.6,54.6-19.7l-3.9-5.2c3.7-3.8,8.5-1.4,13-.2s6.4.6,8.4,1.4c5.5,2.2,10,4.5,15.5,6.1-11.5-8.4-25.2-11.7-39.2-12.3-19.2-.7-36.9,5.5-51.5,17.8-18.1,15.3-25.3,40.9-15.1,62.9s45.1,43.3,75,36.4c6.6-1.5,11.1-4.3,16.6-8.1,1.2,1.2,3.1,3.9,4.3,4.9l9.7,8.6c-1.4-3-3.2-5.1-3.8-7.2l-1.7-6.7,3.9-1.3-13.4-11.8ZM1987.1,1616c-12.7,10.4-26.7,13-41.1,10.5-14.5-2.9-27.1-10.9-34.5-23.6-11.8-20.6-5.6-45.6,14-58.5s56.9-14.3,79.1,5.1l-17.4,16c-7.5-3.8-14.6-7.3-22.8-8.1-15.7-1.4-31.7,5.2-38.3,20.4,13.5-8.9,27.6-12.8,42.6-10,7.1,2.1,12.5,5.7,18.4,11.5l33-30.3c-29.3-29.9-78-35-109.2-5.1-16.1,15.4-20.8,39.6-10.8,59.6,15.6,31.4,57.8,45.4,87,26.3l17.9,16.6c-37.7,28.7-90.7,15.5-118.7-20.6,2.9,10.4,10,18,17.7,24.8,20.2,17.7,47.4,24.3,73.8,19.3,16.4-3.6,30.5-11.3,42.2-23.7l-32.9-30.1ZM2486.8,1577.3c1-2.9,8.6-3.1,6.4-4.4l-2.5-1.4c-.9-.5-2.2-2.3-2.5-3.5s2.5-2,3.2-2.7l9.9-10.9c2.2-2.5,5.5-3.4,5.3-7.6l-19.1,17c-9.7-5.3-20.1-9.3-31.1-8.4-13.4,1.1-26.9,7.8-31.8,21.8,17.2-12,45.7-19.1,62.2.2ZM2499.9,1655.7l7.4-6.1c.4-.3.8-1.8.4-2.1s-.8-.6-1-.9-.6.9-.8,1.3c-14.6,11.2-35.3,17.3-53.8,15.7-28.6-2.6-53.7-16.7-70.3-40.3,2.8,10.4,9,18.4,16.7,25.9,16.6,16,39.2,24.9,62.3,24.6,13.4-.2,26.6-2.4,37.7-8.7-.5-1.9-.9-3.7-.2-4l2.6-1.2-1-4Z" fill="#fff"></path>
  <path d="M2178.6,864.6v424.8h-90s22.2-70.9,22.2-70.9l8.9,23.7c-2.1-10-4.4-18.7-8.8-29.1l-23.8,76.2h-104.9c-1.7-4-2.7-6-5.1-9.5l-3.9,9.6-794.6-.3v-424c17.8-.8,35.6-.1,54.1-.2l45.2-.3h900.7ZM1674.2,1123.2c-20.1-3-37.1-11.9-50.2-26.6-22.6-26.4-23.4-66.6,1.5-91.8,36.2-36.5,98.4-37,136.6-2.9l-27.2,24.9-12.2-5.9c-29.2-14.8-70.8-6.4-84.3,26.3,19.7-15,43.2-21.3,67.1-17,11.6,3,20.5,9.6,29.3,18.3l51.6-47.5c-20.7-21.5-47.5-34.1-76.6-38.2-34.9-4.9-69,6-94.4,29.9-30.7,29.5-33.8,76.6-7.1,109.8,19,23.6,46.6,37.6,77.4,38.6,17.6,1.1,34.1-3.5,48.9-13.6l28.4,26.2c-28,21.2-62.4,28.4-96.2,22.3-38.8-6.8-72-28.5-93.9-61.1,18.5,52,76.7,81.6,129.8,77.9,32.3-2.2,61.6-15.9,83.7-39.3l-51.5-47.3c-17.1,14.3-38.2,20-60.7,17ZM2075.3,1022.9c-6,9-12.2,17.6-15.6,28.3,3.4-3.8,16.1-23.7,15.6-28.3ZM2032.8,1101.9c1.5.4,5.3-1,5.6-2.5s-.6-4.3-1.8-4.9-4,.3-5.7.9c-7.9,2.4-20-1.3-30.3,3.1,15.5,3.6,15.6-.5,32.3,3.5ZM2075.2,1159.4c-2.1-8.5-6-14.8-11.6-20.4,2.1,8.1,6.5,15,11.6,20.4ZM2124.7,1185.3l24.1-.7-20.8-.9-22.2-1.4c-5.1-.3-9.6-.5-14.7-1.5s-4.7-.5-5.3.6l-2.2,4.2,3.9,1.8-1.6,6.8c2.9-5.3,7.7-7.5,13.9-7.8l24.8-1ZM2060.7,1237c4.6-5.5,15.4-22.5,15.8-27-5.9,8.1-12.3,18.7-15.8,27Z"></path>
  <path d="M1339.1,310.2h-34.5c-5.8,0-10-4.4-10.4-10.1v-34.1c.4-5.7,4.6-10.1,10.4-10.1h33.2c5.8,0,10.8,4.1,10.8,10.1v34.1c0,5.3-3.9,9.3-9.4,10.1ZM1316,290.4l2,2.7c.3.5,2.8-.9,2.6-1.4l-4.6-14.9c-.4-1.4-5.2-1.7-5.6-.2l-4.5,15.7,3.1.5c.9.1.9-5.2,4.1-4.7s2.3,1.4,2.8,2.2ZM1326.7,292.6v-11.6c-.1,0-3.7.3-3.7.3v11.5c0,0,3.7-.2,3.7-.2Z"></path>
  <path d="M1414.1,310.2h-34.6c-5.6,0-10.3-4.4-10.3-10.1v-34.1c0-5.7,4.7-10.1,10.3-10.1h33.1c5.7,0,10.9,4,10.9,10.1v34c0,5.4-4,9.3-9.4,10.1ZM1390.9,290.6c.8-.9,1.2-4.8.3-5.5s-2.5-1.7-4.1-2.6l-2.4-1.4c-.5-.3.2-1.9.8-2l2.2-.3,3-.4c.6,0,0-2.4-.7-2.5l-2.4-.3c-2.7-.3-6.4,1.1-7,3.6-1.2,5.3,4.4,5.3,7.3,8.1s-.5,2.1-1.1,2.1-2.1,0-2.8,0l-2.6-.3c-.5,0-.6,2.3-.1,2.6,2,1.3,7.1,1.5,9.7-1.4ZM1399.9,282.4l-1.8,5.6-2.3-6.4c-.3-.9-3.2-1-3.9-.4l3.7,10.6c.4,1,4,1.3,4.3.3l3.8-10.1c.2-.6-2.1-2.1-2.6-1.6s-1.1,1.2-1.3,1.9ZM1405.2,295.7c2.5,3.7,10.2,2.6,10.9-1.9s.5-8.1.5-12.9c-2.7,0-6.5,0-9.1.2s-3,3.6-3.2,5,1.1,5.6,2.5,5.9l6.3,1.2c-2.2,1.2-4.6,1.7-8,2.5Z"></path>
  <path d="M1826.1,570.9l5,3.7,4.4,3.2-3.5-.4c-1.9-.2-6.9,6.3-5.9,11.1-17.1-9.5-29.9-23.4-38.3-40.9-13.7-28.5-8.3-63.1,12.7-86.5,5.2-5.8,10.3-10.2,16.3-15.1s18.3,1.4,15.2,1.6h-3.5s-.5,2.1-.8,3.6l2.6-1.6c.5-.3,2.2.7,2.8.6h4.4s-13.8,9.3-13.8,9.3c-4.1,2.7-8.6,7.5-11.8,11.5-24.8,31.3-17.7,76.3,14.3,99.9Z"></path>
  <path d="M1274.1,310.2h-34.5c-5.5-.1-10.2-4.6-10.2-10.1v-34.2c0-5.5,4.6-10,10.1-10h34.1c5.6,0,10,4.6,10,10.1v35.1c-.6,4.9-4.2,8.4-9.5,9.2ZM1278,292.6v-16.4c0-.7-2.6-2.1-2.9-1.5-2.1,4.3-.2,5.8-2,6l-3.8.4c-2.2.2-3.9,4.1-3.8,6.4s2.2,5.1,4.1,5.1h8.4ZM1248.7,286.7c2-.4,4.6-2.4,5-4.3s-.9-5.2-2.4-5.8c-3-1.2-6.4-1-9.7-.4v15.3c0,.9,3.2,2,3.3,1.1l.5-2.8c.2-.9.3-2.6.9-2.7l2.4-.5ZM1263.7,288.5c-.3-1.7-3.5-3.4-5.3-4.5l5-1.7c-2.9-3.3-8.1-1.2-8.5,1.8s3.3,4,4.9,5.2l-6,1.8c2.5,1.4,4.1,1.8,6.1,1.8s4.2-2.5,3.8-4.4Z"></path>
  <path d="M1833,634.4l-4.3,2.1c.8.8,1.7,1.4,1.4,1.7l-1.9,1.4c-1,.8-2.4,1.8-3.1,2.3s-3.1-1.3-4.3-1.9c-24.6-12.5-46.2-32.1-56.3-59.4,16.3,21.5,35.4,38.2,59.8,48.4l8.7,3.6c1.4.6,3,2.8-.1,1.7Z"></path>
  <path d="M1256.6,524.5l-.9-16-6.5,15c-.4.9-3.1,1.8-3.7,1.2-3.5-3.5-4.2-11-8-16.3l-.4,15.8c-.9.4-3.9.4-5.3-.1v-26.4c1.3-.4,4.6-.4,6.3,0l8.8,19.5,8.7-19.5,6.1-.3v27.2s-5,.2-5,.2Z"></path>
  <path d="M1286.2,637c-5.5,0-10-1.7-11.3-7.3,4.9-3.1,9.8,6.5,14.8,1.2s1.6-4.6,1.1-6.6c-4.1,2.3-7.6,3.3-11.2,1.5s-5.6-5.6-5.8-9.8,1.8-8.2,4.8-10.3,8.1-1.3,11.5.7c1.2-1.3,4.9-2.4,6.3-1v21.6c.1,5.9-4.2,10-10.3,10ZM1284.2,621.7c4.8.7,6.8-3.1,6.8-6.2s-2.3-6.9-6.5-6.4-5.2,3.6-5.2,6.5,1.8,5.8,4.8,6.2Z"></path>
  <path d="M1336,523.2c0,1.5-5,2-5.1.7l-.3-10.8c0-3.3-1.5-5.6-4.4-5.8s-5.4,2.1-5.4,5.8l-.2,10.7c-.4,1-4.3,1-5.2.2l.2-20.2c0-1.5,5-.5,5.8.7,4.3-2.9,9.6-2.4,13.5,1.6,2.7-1.9,6.2-3.9,9-3.5s7.4,3.3,7.4,7l.2,14.5c-1.3.5-4.2.5-5.4,0v-11.1c0-3.2-1.7-5.5-4.9-5.7s-5.1,2.1-5.1,4.8v11.2Z"></path>
  <path d="M1332.6,462.9v11.7c-.1,0-5.4-.3-5.4-.3v-11.5c0-2.8-1.8-5.4-4.1-5.6s-5.9,1.8-5.9,5v12c0,0-5.5.4-5.5.4v-21.8c0,0,6.6,1.2,6.6,1.2,4.2-2,9.3-2.1,13,1.8,2.6-1.8,5.8-3.5,8.9-3.3,10.3.5,7.4,14,7.8,21.7l-5.3.3-.2-12.7c0-2.6-3.1-4.8-5.3-4.6s-4.6,2.7-4.6,5.7Z"></path>
  <path d="M1252.4,463.8l-8-.5c-.9,0-1.3-3.8-.4-3.8h13.6c.9,4.4-.3,8.6-3.4,11.6s-7.3,4.2-11.4,3.7c-7.3-.9-11.8-6.3-12.2-12.4s2.9-13.1,9.3-14.8,14.5-.4,16.9,7.2c-7.4,3.2-6.8-5.4-16-2.1s-4.6,4.7-4.7,8.1,2.6,8.1,6.4,9,8.7-.3,10-6Z"></path>
  <path d="M1362.7,552.4c-5,3.3-4.8,12.3-.2,15.6,7.9,5.7,11.2-6,17.4-1.8-3.8,8.8-14.3,10.3-21.2,5.2-7-5.2-7.3-16.2-.4-22s17.9-4,21.7,4.8c-6.7,4.7-8.6-7.5-17.3-1.8Z"></path>
  <path d="M1378,522.8c0,.7-2.3,2.5-2.9,2.1l-3.2-2.3c-2.9,1.8-7.4,2.9-10.6,1.4s-5.8-5.7-5.9-10,1.8-8.4,5.2-10.4,7.7-.9,11,.9c1.4-.8,4.2-1.8,6.2-1.3l.3,19.6ZM1364.8,519.7c6,1.3,8-3,7.6-7s-3-6.4-7.8-5-3.7,3.8-3.8,6,1.7,5.6,4,6.1Z"></path>
  <path d="M1257.6,569.7c6.3,1.4,4.5-4.5,12.1-2.1-2.6,6.2-8,7.5-13.2,6.3-5.5-1.3-8.4-6.9-7.6-12.9s6.2-9.7,12.2-9.1,10.3,5.9,9,12.8l-15.6.3c.3,1.9,1.9,4.4,3.2,4.7ZM1265,561c-1.5-4.1-3.2-4.7-5.8-4.7s-3.8,1.3-4.9,4.5l10.7.2Z"></path>
  <path d="M1312,569.5c5.2,2.7,5.4-4.7,12.4-2-2.2,5.8-7,7.3-12.3,6.6s-8.7-5.3-8.7-11.1,5.4-11.7,11.7-11.2c6.5.5,11.3,6.1,9.5,13l-15.6.2c.6,1.9,1.7,3.9,2.9,4.5ZM1319.8,560.9c-1.6-3.9-3.3-4.7-5.6-4.7s-4.8,2.1-4.5,4.7h10.2Z"></path>
  <path d="M1257,604.6c6.3-1.6,12.5,2.1,13.7,8,1.3,6.2-1.3,12.2-8.2,13.9s-11.6-1.3-13.3-7.3c-1.7-6.1,1-12.8,7.8-14.5ZM1258,621.7c5.4,1.2,7.6-2.8,7.6-6.1s-2.2-7.3-7-6.4-4.3,3.8-4.4,6.4,1.6,5.6,3.8,6.1Z"></path>
  <path d="M1308.7,604.6c6.6-1.8,12.7,2.3,13.9,8s-1.6,12.3-8.1,13.8-11.9-1.4-13.4-7.3.6-12.5,7.5-14.5ZM1317.3,615.4c0-3.8-2.6-6.4-5.3-6.5s-5.8,2.5-6,6,1.7,7.2,6,7.1,5.3-2.7,5.3-6.6Z"></path>
  <path d="M1364.9,469.8c2.6-1.7,5.6-2.3,7.8-1.4-2.6,6.2-8.1,7.4-13,6.2s-7.9-5.8-7.8-11.3,5-10.9,11.3-10.7,11.3,5.1,10,12.7l-15.7.3c.3,4,4.2,6.3,7.4,4.2ZM1368.2,461.7c-1.9-5.4-4.2-4.7-7.1-4.4s-3.2,2-3.6,4.6l10.7-.2Z"></path>
  <path d="M1268.5,469.9c5.4,3.3,6.1-4.2,12.8-1.6-2,5.6-7,7.2-11.8,6.5s-8.5-4.5-8.9-9.6c-.7-7.5,4-12.6,10.6-12.7s12.1,5.1,10.7,12.7l-15.4.3c0,1.4.9,3.6,2.1,4.3ZM1276.7,461.9c-1.2-4-3.1-5-5.7-4.8s-3.9,1.3-5.1,4.6l10.8.2Z"></path>
  <path d="M1291.6,453.6c6.4-2.6,13.1-.1,15.2,5.7s.3,12.2-5.8,14.8-11.9.6-14.5-4.7-1.4-13.1,5-15.8ZM1294.9,470.1c5.8,1,7.5-3.5,7.1-7.2s-3.2-6.8-7.9-5.1-3.4,4.2-3.4,6.7,2,5.2,4.2,5.5Z"></path>
  <path d="M1283.7,512.5l-.3,11.2c0,1.1-4.3,1.2-5,.2-1.1-29.3,1.2-19.5,6-19.9s5.3-1.7,7.2-1.4c9.9,1.1,6.9,13.5,7.3,21.5-.8.6-4.4.6-5.2-.2l-.4-12.9c0-2.4-3-4.1-5.1-3.9s-4.4,2.2-4.5,5.4Z"></path>
  <path d="M1416.9,524.6c-5.5,1-10.7-.4-12.3-6,5-3.8,9.1,7.2,13.1-.8-4.1-3.2-12.4-2.1-12.7-8.3s2-5.4,4.7-6.3c5.2-1.8,11.1-.1,12.6,5.6-4.3,4-9.1-6.9-12.2.8,3.8,3.3,12.7,2.5,12.6,8.9,0,2.7-2.5,5.6-5.7,6.2Z"></path>
  <path d="M1426.8,457.7c-3.1,1.8-3.7,8.2-1.3,11.1,4.7,5.5,8.9-4.4,13.7-.9-1.5,6.2-7.7,8.1-12.8,6.8s-8.5-6.6-7.8-12.5,4.2-8.8,8.5-9.4,10.7,1,11.9,6.9c-5.8,3.1-7.2-4.9-12.3-2Z"></path>
  <path d="M1246.1,622.2l.2,4.2-14.6-.2v-26.6c1.1-.5,4-.6,5.4-.4v22.4c0,0,8.9.5,8.9.5Z"></path>
  <path d="M1295.9,568.9l4.4.9c.8.2.5,3.8-.3,4.1-2.7.9-9.2,0-9.4-4.8l-.4-11.5c-.9-.8-3.1-2.3-2.7-3l2.1-3.4c.6-1,1.2-3.1,1.7-4s4.3-.3,4.3.8l.3,3.5c0,.8,2.4.8,3.7,1s1.4,2.5,1.1,3.2-2.6,1-4.7,1.3l-.2,12Z"></path>
  <path d="M1280.4,569.1l4.1.6c.9.1,1.1,2.5,1,3.3s-2.6,1.1-3.7,1.1c-4.6-.1-6.6-2.9-6.6-7l-.2-9.4c-1-.8-3-2.3-2.5-3.1l2.1-3.5,1.7-4c.4-1,3.9-.1,4.1.9l.5,3.4c.1.9,2.5.7,3.8,1s.8,2.4.8,3.3-2,.9-4.7,1.3l-.3,12.2Z"></path>
  <path d="M1384.2,468.9c.2.8,3.2,1.3,3.9,1.6s.9,3.2,0,3.7c-2.3,1.4-9.1.2-9.3-3.5l-.9-12.7c-.7-.6-2.8-2-2.4-2.6l2.1-3.5c.5-.7.9-2.7,1.1-3.5s3.4-1.2,4.3-.6.3,4,1.2,4.6,2.8.7,3.7.9,1.5,3,.7,3.2l-4.4,1.4c-.4,1.9-.6,8.4,0,11Z"></path>
  <path d="M1433.1,519.2l3.2.6c.8.2,2.2,2.7,1.6,3.4-2.5,2.8-9.7,1.1-9.9-3.2l-.6-12.1c-1-.7-3-2.5-2.4-3.2l2.3-3.1c.5-.6.6-2.8.9-3.5s3.1-1,4-.5.8,2.6,1,4.6l5.1,1.6c-.2,1.3-.4,3.3-1.1,3.4l-3.9.5-.2,11.6Z"></path>
  <path d="M1246.1,569.9l.2,4.2h-14.6c0,0,0-26.3,0-26.3,0-1.4,5.2-1.5,5.2,0l.4,21.7,8.8.4Z"></path>
  <path d="M1398.3,462.1v12.2c-.1,0-5.4.3-5.4.3v-21c1.3-1.1,4.7,0,6.5,1l3.3-1.6c.9-.5,2.6,1.8,2.4,2.8-.8,4.3-6.8,1.9-6.8,6.4Z"></path>
  <path d="M1389,524.2l-5.5.3v-28.6c1.3-.2,4.1-.2,5.4,0v28.4Z"></path>
  <path d="M1341.8,555.7c-.8,3-6.8,1.4-6.8,6.3v11.5c-1.1.3-3.8.4-5.3.3v-20.5c.2-.7,2.8-1.7,3.4-1.2l2.5,2.2,5.1-2.2c.8-.3,1.4,2.9,1.2,3.7Z"></path>
  <path d="M1310,524.2l-5.6.2v-20.5c.1-1.4,5.4-1.4,5.4,0l.2,20.3Z"></path>
  <path d="M1413.9,473.8c0,1.2-4.7,1.2-5.2.2v-20c0-1.4,5.2-1.3,5.2.3v19.5Z"></path>
  <path d="M1272.9,523.8c-1.4.6-3.9.8-5.5.5v-20.4c0-1.4,5.4-1.4,5.4.1v19.8Z"></path>
  <path d="M1400.2,523.1c0,1.7-4,1.9-5.4.9v-20.1c0-1.3,5.3-1.3,5.3,0v19.1Z"></path>
  <path d="M1831.4,506.9c-.1,0-1.1-1.1-.8-1.4l2.3-1.7c.5-.3,0-2.2.5-2.3s1.9,0,4.3.1l-3.2-2.7,6.3-3.2c0,2.9,0,3,1.3,1.1l1.9,2.9-12.4,7.1Z"></path>
  <path d="M1267.8,494.6c.8-.9,4.4-.6,5.1.3s.4,3.5-.5,4.3-3.3.7-4.5.1-1.2-3.5-.1-4.7Z"></path>
  <path d="M1259.1,815.2l-.5,2.9c0,.5-1.3.1-1.8,0l.8-12.3c1.1,5.4,1.7,8.1,5,12.7l-3.5-3.2Z"></path>
  <path d="M1304.9,494.6c.8-.8,4.3-.6,5,.3s.5,3.2-.4,4.3-3,.7-4.5.2-1.3-3.6-.2-4.8Z"></path>
  <path d="M1395.8,494.3c1.4-.5,3.9-.1,4.5.7s.5,3.9-.6,4.5-3.7.4-4.7-.4-.4-4.4.8-4.8Z"></path>
  <path d="M1409.7,444.3c1.6-.3,3.8,0,4.4.8s.5,3.9-.6,4.4-3.7.4-4.6-.4-.3-4.6.9-4.8Z"></path>
  <path d="M1279.1,795.7c.9,0-1.2.1-3.1.3l1.5-13.1c1.4,4.8,1.1,7.2,1.6,12.7Z"></path>
  <path d="M1318.2,795.2c-3.6.8-6.6.9-9.4.7,3.1-4.1,1.4-7.5,1.2-12.4,2.8,2.4,2,6.5,1.4,11.1l6.8.6Z"></path>
  <path d="M1284.3,771.7c1.8,13.8-5.9-5.4-1.5-11.6l1.5,11.6Z"></path>
  <path d="M712.4,617.7l215.3,197.2c-76.9,81.2-169.2,131.5-276.3,154.9-172.5,32.1-350.6-10.9-482.8-126.6-50.6-44.3-97.3-94.6-116-162.4,183.7,236.4,530.4,322.9,776.9,134.9l-117.4-108.8c-191.1,125.2-466.7,33.6-569.1-171.8-65.4-131.1-34.9-289.4,70.6-390.3C417.8-50.3,736.9-17.1,928.4,178.5l-216,198c-38.9-37.9-74.1-61.8-120.5-75.5-98.4-18.5-190.8,7.4-278.8,65.5,43.2-99,147.8-142.6,250.7-133.2,53.6,4.9,99.9,27.9,149.1,52.9l114-104.5c-145.3-126.4-356.3-139.4-517.4-33.1-128.3,84.7-168.8,248.1-91.5,382.9,47.9,83.6,130.7,135.7,225.5,154.7,94.1,16.6,185.7-.7,268.9-68.5Z" fill="url(#Unbenannter_Verlauf_33)"></path>
  <path d="M1964.8,1521.2l13.4,11.8-3.9,1.3,1.7,6.7c.5,2.1,2.3,4.2,3.8,7.2l-9.7-8.6c-1.1-1-3.1-3.7-4.3-4.9-5.4,3.8-10,6.6-16.6,8.1-29.9,6.8-61.9-8.3-75-36.4s-3-47.6,15.1-62.9c14.6-12.3,32.2-18.6,51.5-17.8,14.1.5,27.8,3.9,39.2,12.3-5.6-1.6-10-3.9-15.5-6.1s-6.1-.8-8.4-1.4c-4.5-1.2-9.3-3.6-13,.2l3.9,5.2c-20.5-1-40.5,4.2-54.6,19.7-18,19.9-13.6,51.1,7.9,66.6,18.2,13.2,45.1,15.4,64.6-1Z"></path>
  <path d="M1977.3,1560.6l1,4-2.6,1.2c-.8.4-.3,2.1.2,4-11.1,6.3-24.3,8.5-37.7,8.7-23.1.3-45.7-8.5-62.3-24.6-7.7-7.4-13.9-15.5-16.7-25.9,16.5,23.6,41.7,37.7,70.3,40.3,18.5,1.7,39.2-4.4,53.8-15.7.2-.4.6-1.5.8-1.3s.8.7,1,.9c.4.2,0,1.8-.4,2.1l-7.4,6.1Z"></path>
  <path d="M1964.2,1482.2c-16.4-19.3-44.9-12.1-62.2-.2,4.9-14,18.4-20.6,31.8-21.8,11.1-.9,21.4,3.1,31.1,8.4l19.1-17c.2,4.2-3.1,5.1-5.3,7.6l-9.9,10.9c-.7.8-3.5,1.8-3.2,2.7s1.6,3,2.5,3.5l2.5,1.4c2.2,1.3-5.4,1.5-6.4,4.4Z"></path>
  <path d="M1674.2,1123.2c22.4,3,43.6-2.8,60.7-17l51.5,47.3c-22.2,23.4-51.5,37.1-83.7,39.3-53.1,3.7-111.3-25.9-129.8-77.9,21.9,32.6,55.2,54.3,93.9,61.1,33.8,6.1,68.2-1.1,96.2-22.3l-28.4-26.2c-14.8,10-31.2,14.6-48.9,13.6-30.8-.9-58.4-14.9-77.4-38.6-26.7-33.2-23.6-80.2,7.1-109.8,25.4-23.9,59.5-34.7,94.4-29.9,29.1,4.1,55.8,16.7,76.6,38.2l-51.6,47.5c-8.8-8.7-17.7-15.3-29.3-18.3-23.9-4.3-47.4,2-67.1,17,13.5-32.7,55.1-41.2,84.3-26.3l12.2,5.9,27.2-24.9c-38.2-34.1-100.4-33.6-136.6,2.9-24.9,25.2-24.1,65.4-1.5,91.8,13.1,14.7,30.1,23.6,50.2,26.6Z" fill="#fff"></path>
  <path d="M2124.7,1185.3l-24.8,1c-6.2.3-11,2.6-13.9,7.8l1.6-6.8-3.9-1.8,2.2-4.2c.6-1.2,3.8-.9,5.3-.6,5.1,1,9.6,1.2,14.7,1.5l22.2,1.4,20.8.9-24.1.7Z" fill="#fff"></path>
  <path d="M2032.8,1101.9c-16.8-4-16.8.2-32.3-3.5,10.3-4.4,22.4-.7,30.3-3.1,1.7-.5,4.5-1.5,5.7-.9s2,3.5,1.8,4.9-4,2.9-5.6,2.5Z" fill="#fff"></path>
  <path d="M2075.3,1022.9c.5,4.5-12.2,24.5-15.6,28.3,3.5-10.7,9.6-19.3,15.6-28.3Z" fill="#fff"></path>
  <path d="M2075.2,1159.4c-5.1-5.3-9.5-12.3-11.6-20.4,5.6,5.5,9.5,11.9,11.6,20.4Z" fill="#fff"></path>
  <path d="M2060.7,1237c3.5-8.3,9.9-18.9,15.8-27-.4,4.5-11.2,21.5-15.8,27Z" fill="#fff"></path>
  <path d="M1316,290.4c-.5-.8-1.9-2-2.8-2.2-3.2-.5-3.3,4.8-4.1,4.7l-3.1-.5,4.5-15.7c.4-1.4,5.2-1.2,5.6.2l4.6,14.9c.2.5-2.3,1.9-2.6,1.4l-2-2.7Z" fill="#fff"></path>
  <polygon points="1326.7 292.6 1322.8 292.7 1322.9 281.2 1326.5 281 1326.7 292.6" fill="#fff"></polygon>
  <path d="M1405.2,295.7c3.3-.9,5.8-1.3,8-2.5l-6.3-1.2c-1.5-.3-2.7-4.3-2.5-5.9s1.9-4.9,3.2-5c2.5-.1,6.4-.2,9.1-.2,0,4.8.1,8.6-.5,12.9s-8.3,5.7-10.9,1.9Z" fill="#fff"></path>
  <path d="M1390.9,290.6c-2.6,2.9-7.7,2.6-9.7,1.4s-.4-2.7.1-2.6l2.6.3c.6,0,2.2,0,2.8,0s1.5-1.7,1.1-2.1c-2.9-2.9-8.5-2.8-7.3-8.1s4.2-3.9,7-3.6l2.4.3c.6,0,1.4,2.4.7,2.5l-3,.4-2.2.3c-.6,0-1.3,1.7-.8,2l2.4,1.4c1.6.9,3.2,1.9,4.1,2.6s.6,4.6-.3,5.5Z" fill="#fff"></path>
  <path d="M1399.9,282.4c.2-.6.9-1.6,1.3-1.9.5-.4,2.8,1,2.6,1.6l-3.8,10.1c-.4.9-4,.7-4.3-.3l-3.7-10.6c.7-.6,3.6-.5,3.9.4l2.3,6.4,1.8-5.6Z" fill="#fff"></path>
  <path d="M1278,292.6h-8.4c-1.9,0-4-3.4-4.1-5.2s1.6-6.2,3.8-6.4l3.8-.4c1.8-.2,0-1.7,2-6s2.9.8,2.9,1.5v16.4Z" fill="#fff"></path>
  <path d="M1248.7,286.7l-2.4.5c-.6.1-.8,1.8-.9,2.7l-.5,2.8c-.1.8-3.3-.2-3.3-1.1v-15.3c3.3-.7,6.8-.8,9.8.4s2.7,4.3,2.4,5.8-3,3.9-5,4.3Z" fill="#fff"></path>
  <path d="M1263.7,288.5c.4,2-2.4,4.4-3.8,4.4-2,0-3.6-.4-6.1-1.8l6-1.8c-1.6-1.2-5.1-3.3-4.9-5.2.3-2.9,5.6-5.1,8.5-1.8l-5,1.7c1.8,1.2,5,2.8,5.3,4.5Z" fill="#fff"></path>
  <path d="M1284.2,621.7c-3.1-.5-4.8-3.7-4.8-6.2s1.9-6.1,5.2-6.5,6.5,3.1,6.5,6.4-2,6.9-6.8,6.2Z" fill="#fff"></path>
  <path d="M1364.8,519.7c-2.2-.5-4-4.1-4-6.1s1.8-5.4,3.8-6c4.7-1.4,7.4,1.7,7.8,5s-1.5,8.4-7.6,7Z" fill="#fff"></path>
  <path d="M1265,561l-10.7-.2c1.1-3.2,2.9-4.6,4.9-4.5s4.3.6,5.8,4.7Z" fill="#fff"></path>
  <path d="M1319.8,560.9h-10.2c-.2-2.6,2.1-4.6,4.5-4.7s4.1.8,5.6,4.7Z" fill="#fff"></path>
  <path d="M1258,621.7c-2.2-.5-3.8-4.1-3.8-6.1s1.7-5.9,4.4-6.4c4.7-.9,7,2.8,7,6.4s-2.1,7.3-7.6,6.1Z" fill="#fff"></path>
  <path d="M1317.3,615.4c0,3.9-2.7,6.5-5.3,6.6-4.3.1-6.1-2.8-6-7.1s2.4-6.1,6-6,5.3,2.7,5.3,6.5Z" fill="#fff"></path>
  <path d="M1368.2,461.7l-10.7.2c.4-2.5,1.8-4.4,3.6-4.6,2.9-.3,5.2-1,7.1,4.4Z" fill="#fff"></path>
  <path d="M1276.7,461.9l-10.8-.2c1.3-3.3,2.8-4.5,5.1-4.6s4.4.8,5.7,4.8Z" fill="#fff"></path>
  <path d="M1294.9,470.1c-2.2-.4-4.2-3.7-4.2-5.5s1.2-5.9,3.4-6.7c4.7-1.7,7.6,1.4,7.9,5.1s-1.4,8.1-7.1,7.2Z" fill="#fff"></path>
  <rect x="818.2" y="-491" width="160" height="195.6" fill="#f59e11"></rect>
  <rect x="583.5" y="-385.6" width="160" height="195.6" fill="#fcc10a"></rect>
  <rect x="-47.6" y="-268.3" width="160" height="195.6" fill="#ffe12f"></rect>
</svg></svg></g></g></svg>